<mxfile host="app.diagrams.net" modified="2022-05-29T19:04:04.362Z" agent="5.0 (Macintosh; Intel Mac OS X 10_15_7) AppleWebKit/537.36 (KHTML, like Gecko) Chrome/102.0.5005.61 Safari/537.36" etag="f4UP2tx8mAK274DCi6Ee" version="18.1.3" type="github" pages="2">
  <diagram id="vkxZYZPCdLm4a7nPJHYq" name="Page-1">
    <mxGraphModel dx="1426" dy="1842" grid="1" gridSize="10" guides="1" tooltips="1" connect="1" arrows="1" fold="1" page="1" pageScale="1" pageWidth="827" pageHeight="1169" math="0" shadow="0">
      <root>
        <mxCell id="0" />
        <mxCell id="1" parent="0" />
        <mxCell id="C61q2XhHyYQduEXtUaEE-2" value="Открытый чемпионат&amp;nbsp;РБ&lt;br&gt;Открытый кубок РБ&lt;br&gt;Открытое первенство РБ&lt;br&gt;Олимпийские дни молодежи РБ" style="rounded=0;whiteSpace=wrap;html=1;" vertex="1" parent="1">
          <mxGeometry x="10" y="-1110" width="770" height="70" as="geometry" />
        </mxCell>
        <mxCell id="C61q2XhHyYQduEXtUaEE-3" value="Первенство РБ в программе соревнований&amp;nbsp;&quot;Весёлый Дельфин&quot;&lt;br&gt;Спартакиада детско-юношеских спортивных школ&lt;br&gt;Открытый чемпионат РБ на короткой воде" style="rounded=0;whiteSpace=wrap;html=1;" vertex="1" parent="1">
          <mxGeometry x="10" y="-1030" width="770" height="60" as="geometry" />
        </mxCell>
        <mxCell id="C61q2XhHyYQduEXtUaEE-4" value="РЕСПУБЛИКАНСКИЕ СОРЕВНОВАНИЯ" style="rounded=0;whiteSpace=wrap;html=1;labelBackgroundColor=none;fillColor=#ffe6cc;strokeColor=#d79b00;" vertex="1" parent="1">
          <mxGeometry x="10" y="-1160" width="770" height="40" as="geometry" />
        </mxCell>
        <mxCell id="C61q2XhHyYQduEXtUaEE-5" value="ГОРОДСКИЕ СОРЕВНОВАНИЯ" style="rounded=0;whiteSpace=wrap;html=1;labelBackgroundColor=none;fillColor=#ffe6cc;strokeColor=#d79b00;" vertex="1" parent="1">
          <mxGeometry x="10" y="-950" width="770" height="40" as="geometry" />
        </mxCell>
        <mxCell id="C61q2XhHyYQduEXtUaEE-6" value="Первенство г.Минска&lt;br&gt;Открытый кубок РБ&lt;br&gt;Открытое первенство РБ&lt;br&gt;Олимпийские дни молодежи РБ" style="rounded=0;whiteSpace=wrap;html=1;" vertex="1" parent="1">
          <mxGeometry x="10" y="-900" width="770" height="70" as="geometry" />
        </mxCell>
      </root>
    </mxGraphModel>
  </diagram>
  <diagram id="aLGUmYWIf1SZQ463Ggjz" name="Page-2">
    <mxGraphModel dx="1426" dy="673" grid="1" gridSize="10" guides="1" tooltips="1" connect="1" arrows="1" fold="1" page="1" pageScale="1" pageWidth="827" pageHeight="1169" math="0" shadow="0">
      <root>
        <mxCell id="0" />
        <mxCell id="1" parent="0" />
      </root>
    </mxGraphModel>
  </diagram>
</mxfile>
